<svg xmlns="http://www.w3.org/2000/svg" viewBox="0 0 1892.66 577.44"><defs><style>.cls-1,.cls-6{fill:none;}.cls-1,.cls-5,.cls-6{stroke:#000;stroke-miterlimit:10;}.cls-1{stroke-width:16px;}.cls-2{font-size:374.43px;letter-spacing:0.03em;}.cls-2,.cls-7{font-family:BebasNeue-Regular, Bebas Neue;}.cls-3{letter-spacing:0.01em;}.cls-4{letter-spacing:0.04em;}.cls-5{stroke-width:4px;}.cls-6{stroke-width:22px;}.cls-7{font-size:68.61px;letter-spacing:0.03em;}</style></defs><g id="Layer_2" data-name="Layer 2"><g id="Layer_1-2" data-name="Layer 1"><line class="cls-1" x1="396.59" y1="546.48" x2="3.44" y2="546.48"/><line class="cls-1" x1="1429.38" y1="546.48" x2="1822.53" y2="546.48"/><text class="cls-2" transform="translate(0 414.74)">ALMA VI<tspan class="cls-3" x="994.45" y="0">V</tspan><tspan x="1139.72" y="0">A </tspan><tspan class="cls-4" x="1375.23" y="0">L</tspan><tspan x="1518.25" y="0">AB</tspan></text><path d="M487.6,576.9a3.91,3.91,0,0,1-4.33-4.32V526.8a3.91,3.91,0,0,1,4.33-4.32h28.17a3.45,3.45,0,0,1,2.47.81,3.09,3.09,0,0,1,.85,2.35,3,3,0,0,1-3.32,3.32H491V546h23.08a3.45,3.45,0,0,1,2.51,5.68,3.41,3.41,0,0,1-2.51.81H491v17.9h24.78a3.38,3.38,0,0,1,2.47.85,3.24,3.24,0,0,1,.85,2.4,3.19,3.19,0,0,1-.85,2.43,3.45,3.45,0,0,1-2.47.81Z"/><path d="M535.84,577.44a3.8,3.8,0,0,1-2.78-1,3.88,3.88,0,0,1-1-2.86V526a4.24,4.24,0,0,1,1-3,3.39,3.39,0,0,1,2.59-1,3.77,3.77,0,0,1,2.12.5,8.69,8.69,0,0,1,1.74,1.81l31.8,41.92h-1.93V525.72a3.83,3.83,0,0,1,1-2.78,4.31,4.31,0,0,1,5.52,0,4,4,0,0,1,.92,2.78v47.94a4.07,4.07,0,0,1-.89,2.78,3,3,0,0,1-2.35,1,4.32,4.32,0,0,1-2.28-.54,7.51,7.51,0,0,1-1.89-1.85l-31.65-41.84h1.78v40.37a4.07,4.07,0,0,1-.93,2.86A3.53,3.53,0,0,1,535.84,577.44Z"/><path d="M610,577.44a3.92,3.92,0,0,1-3-1.08,4.14,4.14,0,0,1-1-3V529.19H589.64a3.55,3.55,0,0,1-2.55-.88,3.34,3.34,0,0,1-.92-2.51,3.21,3.21,0,0,1,.92-2.47,3.62,3.62,0,0,1,2.55-.85h40.68a3.75,3.75,0,0,1,2.63.85,3.21,3.21,0,0,1,.92,2.47,3.34,3.34,0,0,1-.92,2.51,3.67,3.67,0,0,1-2.63.88H614v44.16a4.39,4.39,0,0,1-1,3A3.78,3.78,0,0,1,610,577.44Z"/><path d="M647.53,576.9a3.91,3.91,0,0,1-4.32-4.32V526.8a3.91,3.91,0,0,1,4.32-4.32h28.18a3.45,3.45,0,0,1,2.47.81,3.13,3.13,0,0,1,.85,2.35,3,3,0,0,1-3.32,3.32H650.93V546H674a3.45,3.45,0,0,1,2.51,5.68,3.43,3.43,0,0,1-2.51.81H650.93v17.9h24.78a3.38,3.38,0,0,1,2.47.85,3.28,3.28,0,0,1,.85,2.4,3.23,3.23,0,0,1-.85,2.43,3.45,3.45,0,0,1-2.47.81Z"/><path d="M696,577.44a3.92,3.92,0,0,1-3-1.08,4.14,4.14,0,0,1-1-3V526.57a4,4,0,0,1,1.08-3.05,4.17,4.17,0,0,1,3-1h18.44q8.81,0,13.59,4.17t4.79,11.81a16,16,0,0,1-2.17,8.49,13.6,13.6,0,0,1-6.29,5.4,24,24,0,0,1-9.92,1.85l.7-1.08h2a9.33,9.33,0,0,1,5.36,1.55,13.66,13.66,0,0,1,4.13,4.94L733.37,572a5.13,5.13,0,0,1,.73,2.66,2.69,2.69,0,0,1-.92,2,3.75,3.75,0,0,1-2.51.77,4.72,4.72,0,0,1-2.74-.73,6.74,6.74,0,0,1-1.89-2.2l-8.11-15a9.08,9.08,0,0,0-3.7-4,12.25,12.25,0,0,0-5.48-1H700v18.91a4.26,4.26,0,0,1-1,3A3.91,3.91,0,0,1,696,577.44Zm4-29h13.2c3.91,0,6.87-.83,8.88-2.47s3-4.1,3-7.34-1-5.61-3-7.25-5-2.47-8.88-2.47H700Z"/><path d="M763.32,577.44a3.92,3.92,0,0,1-3-1.08,4.15,4.15,0,0,1-1.05-3V529.19H742.94a3.55,3.55,0,0,1-2.55-.88,3.34,3.34,0,0,1-.92-2.51,3.21,3.21,0,0,1,.92-2.47,3.62,3.62,0,0,1,2.55-.85h40.68a3.71,3.71,0,0,1,2.62.85,3.18,3.18,0,0,1,.93,2.47,3.3,3.3,0,0,1-.93,2.51,3.63,3.63,0,0,1-2.62.88H767.25v44.16a4.39,4.39,0,0,1-1,3A3.78,3.78,0,0,1,763.32,577.44Z"/><path d="M790.26,577.44a4,4,0,0,1-2.47-.7,2.64,2.64,0,0,1-1.08-1.85,5,5,0,0,1,.46-2.62l20.92-46.94a5.52,5.52,0,0,1,2-2.62,4.81,4.81,0,0,1,2.66-.77,4.73,4.73,0,0,1,2.59.77,5.57,5.57,0,0,1,2,2.62l20.92,46.94a4.68,4.68,0,0,1,.54,2.66,2.64,2.64,0,0,1-1,1.85,3.82,3.82,0,0,1-2.39.66,4,4,0,0,1-2.71-.85,7.13,7.13,0,0,1-1.77-2.63l-5.4-12.5,3.62,2.16H796.2l3.55-2.16L794.43,574a7.36,7.36,0,0,1-1.7,2.67A3.62,3.62,0,0,1,790.26,577.44Zm22.31-46.08L800.91,559,799,557.14h27.25L824.45,559l-11.73-27.63Z"/><path d="M854.71,577.44a3.92,3.92,0,0,1-3-1.08,4.14,4.14,0,0,1-1-3V526a4.12,4.12,0,0,1,1-3,4.76,4.76,0,0,1,5.94,0,4.12,4.12,0,0,1,1,3v47.32a4.26,4.26,0,0,1-1,3A3.91,3.91,0,0,1,854.71,577.44Z"/><path d="M878.48,577.44a3.76,3.76,0,0,1-2.77-1,3.88,3.88,0,0,1-1-2.86V526a4.2,4.2,0,0,1,1-3,3.35,3.35,0,0,1,2.58-1,3.81,3.81,0,0,1,2.13.5,9,9,0,0,1,1.73,1.81l31.81,41.92H912V525.72a3.87,3.87,0,0,1,1-2.78,4.31,4.31,0,0,1,5.52,0,3.94,3.94,0,0,1,.93,2.78v47.94a4.07,4.07,0,0,1-.89,2.78,3,3,0,0,1-2.36,1,4.31,4.31,0,0,1-2.27-.54,7.2,7.2,0,0,1-1.89-1.85l-31.65-41.84h1.77v40.37a4.11,4.11,0,0,1-.92,2.86A3.54,3.54,0,0,1,878.48,577.44Z"/><path d="M939.23,577.44a3.67,3.67,0,0,1-2.74-1,3.87,3.87,0,0,1-1-2.78V525.72a3.41,3.41,0,0,1,3.7-3.78,4.55,4.55,0,0,1,2.51.58,5.32,5.32,0,0,1,1.66,2l20.23,37.75h-2.4l20.15-37.75a5.46,5.46,0,0,1,1.62-2,4.36,4.36,0,0,1,2.47-.58,3.46,3.46,0,0,1,2.62,1,3.93,3.93,0,0,1,.93,2.82v47.94a4,4,0,0,1-.89,2.78,3.39,3.39,0,0,1-2.66,1,3.53,3.53,0,0,1-2.7-1,3.94,3.94,0,0,1-.93-2.78V533.83h1.7l-17.91,33.11a5.3,5.3,0,0,1-1.31,1.7,3.08,3.08,0,0,1-1.93.54,3.26,3.26,0,0,1-2-.58,5.43,5.43,0,0,1-1.38-1.66l-18.07-33.19h1.85v39.91a4.07,4.07,0,0,1-.88,2.78A3.42,3.42,0,0,1,939.23,577.44Z"/><path d="M1009.48,576.9a3.91,3.91,0,0,1-4.33-4.32V526.8a3.91,3.91,0,0,1,4.33-4.32h28.17a3.45,3.45,0,0,1,2.47.81,3.09,3.09,0,0,1,.85,2.35,3,3,0,0,1-3.32,3.32h-24.78V546H1036a3.45,3.45,0,0,1,2.51,5.68,3.43,3.43,0,0,1-2.51.81h-23.08v17.9h24.78a3.38,3.38,0,0,1,2.47.85,3.24,3.24,0,0,1,.85,2.4,3.19,3.19,0,0,1-.85,2.43,3.45,3.45,0,0,1-2.47.81Z"/><path d="M1057.72,577.44a3.8,3.8,0,0,1-2.78-1,3.88,3.88,0,0,1-1-2.86V526a4.24,4.24,0,0,1,1-3,3.37,3.37,0,0,1,2.59-1,3.79,3.79,0,0,1,2.12.5,8.69,8.69,0,0,1,1.74,1.81l31.8,41.92h-1.93V525.72a3.87,3.87,0,0,1,1-2.78,3.63,3.63,0,0,1,2.74-1,3.58,3.58,0,0,1,2.78,1,3.94,3.94,0,0,1,.93,2.78v47.94a4.07,4.07,0,0,1-.89,2.78,3,3,0,0,1-2.35,1,4.32,4.32,0,0,1-2.28-.54,7.51,7.51,0,0,1-1.89-1.85l-31.65-41.84h1.78v40.37a4.07,4.07,0,0,1-.93,2.86A3.53,3.53,0,0,1,1057.72,577.44Z"/><path d="M1131.9,577.44a3.92,3.92,0,0,1-3-1.08,4.15,4.15,0,0,1-1-3V529.19h-16.36a3.55,3.55,0,0,1-2.55-.88,3.34,3.34,0,0,1-.92-2.51,3.21,3.21,0,0,1,.92-2.47,3.62,3.62,0,0,1,2.55-.85h40.68a3.71,3.71,0,0,1,2.62.85,3.18,3.18,0,0,1,.93,2.47,3.3,3.3,0,0,1-.93,2.51,3.63,3.63,0,0,1-2.62.88h-16.37v44.16a4.39,4.39,0,0,1-1,3A3.78,3.78,0,0,1,1131.9,577.44Z"/><path d="M1192.88,576.9a3.75,3.75,0,0,1-4.09-4.09V526.26a4.12,4.12,0,0,1,1-3,4.76,4.76,0,0,1,5.94,0,4.12,4.12,0,0,1,1,3V570h23.93a3.66,3.66,0,0,1,2.63.89,3.28,3.28,0,0,1,.92,2.5,3.43,3.43,0,0,1-.92,2.55,3.55,3.55,0,0,1-2.63.93Z"/><path d="M1233,577.44a4,4,0,0,1-2.47-.7,2.64,2.64,0,0,1-1.08-1.85,5,5,0,0,1,.46-2.62l20.92-46.94a5.52,5.52,0,0,1,2-2.62,4.81,4.81,0,0,1,2.66-.77,4.73,4.73,0,0,1,2.59.77,5.57,5.57,0,0,1,2,2.62L1281,572.27a4.77,4.77,0,0,1,.54,2.66,2.64,2.64,0,0,1-1,1.85,3.84,3.84,0,0,1-2.39.66,4,4,0,0,1-2.71-.85,7,7,0,0,1-1.77-2.63l-5.4-12.5,3.62,2.16H1239l3.55-2.16-5.32,12.5a7.36,7.36,0,0,1-1.7,2.67A3.62,3.62,0,0,1,1233,577.44Zm22.31-46.08L1243.67,559l-1.93-1.85H1269l-1.78,1.85-11.73-27.63Z"/><path d="M1307.35,577.44a4.19,4.19,0,0,1-2.74-.85,6.35,6.35,0,0,1-1.74-2.63l-16.59-47.31a3.51,3.51,0,0,1,.27-3.36,3.66,3.66,0,0,1,3.2-1.35,4.22,4.22,0,0,1,2.67.77,5.07,5.07,0,0,1,1.5,2.47l15,44.31h-2.85l15.43-44.16a7.13,7.13,0,0,1,1.62-2.54,3.52,3.52,0,0,1,2.48-.85,3.38,3.38,0,0,1,2.43.85,7.22,7.22,0,0,1,1.58,2.62l15.13,44.08h-2.55l15.21-44.31a5.27,5.27,0,0,1,1.5-2.43,3.92,3.92,0,0,1,2.59-.81,3.2,3.2,0,0,1,3.16,4.71L1348,574a6.5,6.5,0,0,1-1.7,2.55,4,4,0,0,1-2.7.85,4.16,4.16,0,0,1-2.78-.85,5.87,5.87,0,0,1-1.62-2.63l-14.59-41.75h1.7L1311.6,574a6.17,6.17,0,0,1-1.59,2.55A3.86,3.86,0,0,1,1307.35,577.44Z"/><circle class="cls-5" cx="945.75" cy="31.64" r="29.64"/><line class="cls-6" x1="1043.03" y1="33.2" x2="1043.03" y2="120.57"/><line class="cls-6" x1="1092.96" y1="33.2" x2="1092.96" y2="120.57"/><text class="cls-7" transform="translate(1839.69 198.79)">®</text></g></g></svg>